<svg enable-background="new 0 0 1275.59 283.46" viewBox="0 0 1275.59 283.46" xmlns="http://www.w3.org/2000/svg"><circle cx="141.73" cy="141.73" fill="#407fb7" r="140.31"/><path d="m204.13 121.37c-.47 0-.93.03-1.39.07l-12.78-44.94c4.1-2.23 6.88-6.58 6.88-11.57 0-7.28-5.9-13.18-13.18-13.18s-13.18 5.9-13.18 13.18 5.9 13.17 13.18 13.17c.24 0 .49-.02.73-.04l12.79 44.96c-2.85 1.43-5.21 3.7-6.72 6.5l-49.82-15.85c.28-1.49.45-3.03.45-4.61 0-13.52-10.96-24.48-24.48-24.48s-24.48 10.96-24.48 24.48c0 10.81 7.02 19.98 16.75 23.22l-6.22 30.21c-1.36-.16-2.73-.25-4.14-.25-19.18 0-34.73 15.55-34.73 34.73s15.55 34.73 34.73 34.73 34.73-15.55 34.73-34.73c0-5.21-1.16-10.15-3.21-14.59l62.27-35.4c2.85 3.35 7.09 5.49 11.84 5.49 8.59 0 15.55-6.96 15.55-15.55-.01-8.58-6.98-15.55-15.57-15.55zm-76.97 55.99c-4.47-6.51-11.09-11.42-18.84-13.7l6.22-30.21c.68.06 1.37.11 2.06.11 9.9 0 18.42-5.9 22.27-14.36l49.84 15.86c-.07.61-.12 1.24-.12 1.87 0 1.76.31 3.45.85 5.03z" fill="#fff"/><g fill="#3c3c3c"><path d="m370.4 164.51c-8.63 0-15.44 2.87-20.44 8.62s-7.49 13.62-7.49 23.61c0 10.28 2.41 18.22 7.22 23.82 4.82 5.6 11.68 8.41 20.6 8.41 5.48 0 11.73-.98 18.75-2.95v8c-5.44 2.04-12.16 3.06-20.14 3.06-11.57 0-20.49-3.51-26.77-10.53s-9.43-16.99-9.43-29.92c0-8.09 1.51-15.18 4.54-21.27s7.39-10.78 13.11-14.07c5.71-3.29 12.43-4.94 20.17-4.94 8.24 0 15.43 1.5 21.59 4.51l-3.87 7.84c-5.95-2.8-11.89-4.19-17.84-4.19z"/><path d="m449.74 206.51c0 9.6-2.42 17.09-7.25 22.48s-11.51 8.08-20.03 8.08c-5.26 0-9.94-1.24-14.02-3.71s-7.23-6.02-9.45-10.63c-2.22-4.62-3.33-10.03-3.33-16.22 0-9.6 2.4-17.07 7.2-22.42s11.46-8.03 19.98-8.03c8.24 0 14.78 2.74 19.63 8.22 4.84 5.47 7.27 12.88 7.27 22.23zm-44.85 0c0 7.52 1.5 13.25 4.51 17.19s7.43 5.91 13.27 5.91 10.27-1.96 13.29-5.88c3.03-3.92 4.54-9.66 4.54-17.21 0-7.48-1.51-13.17-4.54-17.05s-7.49-5.83-13.4-5.83c-5.84 0-10.24 1.92-13.21 5.75-2.98 3.82-4.46 9.53-4.46 17.12z"/><path d="m469.97 236h-8.92v-83.57h8.92z"/><path d="m492.89 236h-8.92v-83.57h8.92z"/><path d="m532.29 237.07c-8.7 0-15.57-2.65-20.6-7.95s-7.55-12.66-7.55-22.08c0-9.49 2.34-17.03 7.01-22.61s10.95-8.38 18.83-8.38c7.38 0 13.21 2.43 17.51 7.28s6.45 11.25 6.45 19.2v5.64h-40.55c.18 6.91 1.92 12.16 5.24 15.74 3.31 3.58 7.98 5.37 13.99 5.37 6.34 0 12.6-1.32 18.8-3.97v7.95c-3.15 1.36-6.13 2.34-8.94 2.93-2.82.58-6.21.88-10.19.88zm-2.41-53.55c-4.73 0-8.5 1.54-11.31 4.62s-4.47 7.34-4.97 12.78h30.78c0-5.62-1.25-9.93-3.76-12.92-2.51-2.98-6.09-4.48-10.74-4.48z"/><path d="m588.92 237.07c-8.52 0-15.12-2.62-19.79-7.87s-7.01-12.67-7.01-22.26c0-9.85 2.37-17.46 7.12-22.83 4.74-5.37 11.5-8.06 20.28-8.06 2.83 0 5.66.3 8.49.91s5.05 1.33 6.66 2.15l-2.74 7.57c-1.97-.79-4.12-1.44-6.45-1.96s-4.39-.78-6.18-.78c-11.96 0-17.94 7.63-17.94 22.88 0 7.23 1.46 12.78 4.38 16.65s7.24 5.8 12.97 5.8c4.9 0 9.94-1.06 15.09-3.17v7.9c-3.94 2.05-8.9 3.07-14.88 3.07z"/><path d="m636.67 229.71c1.58 0 3.1-.12 4.57-.35s2.63-.47 3.49-.73v6.82c-.97.47-2.39.85-4.27 1.16-1.88.3-3.57.46-5.08.46-11.39 0-17.08-6-17.08-17.99v-35.02h-8.43v-4.3l8.43-3.71 3.76-12.57h5.16v13.64h17.08v6.93h-17.08v34.64c0 3.54.84 6.27 2.52 8.16 1.68 1.91 3.99 2.86 6.93 2.86z"/><path d="m652.17 161.18c0-2.04.5-3.54 1.5-4.48 1-.95 2.26-1.42 3.76-1.42 1.43 0 2.67.48 3.71 1.45s1.56 2.45 1.56 4.46-.52 3.5-1.56 4.49-2.27 1.48-3.71 1.48c-1.5 0-2.76-.49-3.76-1.48-1-1-1.5-2.5-1.5-4.5zm9.67 74.82h-8.92v-58.87h8.92z"/><path d="m691.23 236-22.34-58.87h9.56l12.68 34.91c2.86 8.16 4.55 13.46 5.05 15.9h.43c.39-1.9 1.64-5.83 3.73-11.79 2.1-5.96 6.79-18.97 14.1-39.02h9.56l-22.35 58.87z"/><path d="m753.73 237.07c-8.7 0-15.57-2.65-20.6-7.95s-7.55-12.66-7.55-22.08c0-9.49 2.34-17.03 7.01-22.61 4.67-5.59 10.95-8.38 18.83-8.38 7.38 0 13.21 2.43 17.51 7.28s6.45 11.25 6.45 19.2v5.64h-40.55c.18 6.91 1.92 12.16 5.24 15.74 3.31 3.58 7.98 5.37 13.99 5.37 6.34 0 12.6-1.32 18.8-3.97v7.95c-3.15 1.36-6.13 2.34-8.94 2.93-2.83.58-6.22.88-10.19.88zm-2.42-53.55c-4.73 0-8.5 1.54-11.31 4.62s-4.47 7.34-4.97 12.78h30.78c0-5.62-1.25-9.93-3.76-12.92-2.5-2.98-6.09-4.48-10.74-4.48z"/><path d="m817.51 236v-78.53h5.48v78.53z"/><path d="m880.09 236v-37.87c0-5.87-1.24-10.14-3.71-12.81s-6.3-4-11.49-4c-6.98 0-12.09 1.76-15.33 5.29s-4.86 9.25-4.86 17.16v32.23h-5.32v-58.38h4.51l1.02 8h.32c3.79-6.09 10.54-9.13 20.25-9.13 13.25 0 19.87 7.11 19.87 21.32v38.19z"/><path d="m923.71 237.07c-8.34 0-14.88-2.63-19.6-7.9s-7.09-12.6-7.09-22.02c0-9.67 2.45-17.2 7.36-22.58 4.91-5.39 11.62-8.08 20.14-8.08 5.05 0 9.88.88 14.5 2.63l-1.45 4.73c-5.05-1.68-9.44-2.52-13.16-2.52-7.16 0-12.59 2.21-16.27 6.63-3.69 4.42-5.53 10.79-5.53 19.09 0 7.88 1.84 14.05 5.53 18.5 3.69 4.46 8.84 6.69 15.47 6.69 5.3 0 10.22-.95 14.77-2.85v4.94c-3.73 1.83-8.62 2.74-14.67 2.74z"/><path d="m953.68 177.61v37.81c0 5.87 1.24 10.14 3.71 12.81s6.3 4 11.49 4c6.95 0 12.06-1.75 15.33-5.26 3.28-3.51 4.91-9.22 4.91-17.13v-32.23h5.26v58.39h-4.51l-.97-8.06h-.32c-3.8 6.09-10.55 9.13-20.25 9.13-13.29 0-19.93-7.11-19.93-21.32v-38.13h5.28z"/><path d="m1034.11 176.48c8.16 0 14.31 2.57 18.45 7.71 4.13 5.14 6.2 12.65 6.2 22.53 0 9.7-2.18 17.19-6.53 22.45s-10.47 7.9-18.34 7.9c-4.15 0-7.9-.86-11.23-2.58s-5.96-4.15-7.9-7.3h-.48l-1.5 8.81h-3.33v-83.57h5.32v21c0 3.15-.07 6.05-.21 8.7l-.16 4.57h.38c2.22-3.51 4.9-6.09 8.03-7.73 3.13-1.66 6.89-2.49 11.3-2.49zm-.11 4.84c-6.88 0-11.8 1.97-14.77 5.91s-4.46 10.44-4.46 19.5v.91c0 8.81 1.55 15.13 4.65 18.96s7.92 5.75 14.48 5.75c6.37 0 11.17-2.23 14.39-6.69s4.83-10.8 4.83-19.04c0-16.87-6.37-25.3-19.12-25.3z"/><path d="m1107.07 236-1.34-9.24h-.43c-2.94 3.76-5.95 6.42-9.05 7.98s-6.76 2.34-10.98 2.34c-5.73 0-10.19-1.47-13.37-4.4-3.19-2.94-4.78-7-4.78-12.19 0-5.69 2.37-10.12 7.12-13.27 4.74-3.15 11.61-4.82 20.6-5l11.12-.32v-3.87c0-5.55-1.13-9.74-3.38-12.57-2.26-2.83-5.89-4.24-10.9-4.24-5.41 0-11.01 1.5-16.81 4.51l-1.99-4.62c6.41-3.01 12.75-4.51 19.01-4.51 6.41 0 11.2 1.67 14.37 5s4.75 8.52 4.75 15.58v38.82zm-21.49-3.76c6.23 0 11.14-1.78 14.74-5.34s5.4-8.51 5.4-14.85v-5.75l-10.21.43c-8.2.39-14.05 1.67-17.54 3.84s-5.24 5.54-5.24 10.12c0 3.65 1.12 6.49 3.36 8.51 2.25 2.02 5.41 3.04 9.49 3.04z"/><path d="m1141.61 232.34c3.37 0 6.3-.29 8.81-.86v4.3c-2.58.86-5.55 1.29-8.92 1.29-5.16 0-8.96-1.38-11.41-4.14s-3.68-7.09-3.68-13v-37.71h-8.65v-3.12l8.65-2.42 2.69-13.21h2.74v14.13h17.13v4.62h-17.13v36.95c0 4.48.79 7.79 2.36 9.94 1.58 2.16 4.05 3.23 7.41 3.23z"/><path d="m1205.81 206.72c0 9.53-2.31 16.96-6.93 22.32-4.62 5.35-10.99 8.03-19.12 8.03-5.12 0-9.63-1.24-13.54-3.71-3.9-2.47-6.89-6.02-8.97-10.63-2.08-4.62-3.12-9.95-3.12-16.01 0-9.52 2.31-16.95 6.93-22.26s10.96-7.98 19.01-7.98c8.02 0 14.31 2.7 18.88 8.08 4.58 5.4 6.86 12.78 6.86 22.16zm-46.09 0c0 8.02 1.76 14.28 5.29 18.77s8.51 6.74 14.96 6.74 11.43-2.25 14.96-6.74 5.29-10.75 5.29-18.77c0-8.06-1.78-14.3-5.34-18.75-3.56-4.44-8.57-6.66-15.01-6.66s-11.41 2.21-14.9 6.63c-3.5 4.43-5.25 10.69-5.25 18.78z"/><path d="m1240.98 176.48c2.47 0 5.12.25 7.95.75l-1.02 5.1c-2.44-.61-4.96-.91-7.57-.91-4.98 0-9.06 2.11-12.25 6.34s-4.78 9.56-4.78 16.01v32.23h-5.32v-58.38h4.51l.54 10.53h.38c2.4-4.3 4.96-7.31 7.68-9.05 2.72-1.75 6.01-2.62 9.88-2.62z"/></g></svg>